<svg width="143" height="250" viewBox="0 0 143 250" fill="none" xmlns="http://www.w3.org/2000/svg">
<mask id="path-1-inside-1_528_221" fill="white">
<path fill-rule="evenodd" clip-rule="evenodd" d="M0 249.998C79.0229 249.729 143 185.585 143 106.499V-0.000976562H0V249.998Z"/>
</mask>
<path d="M0 249.998H-3V253.008L0.0102327 252.998L0 249.998ZM143 -0.000976562H146V-3.00098H143V-0.000976562ZM0 -0.000976562V-3.00098H-3V-0.000976562H0ZM0.0102327 252.998C80.6854 252.723 146 187.239 146 106.499H140C140 183.932 77.3604 246.734 -0.0102327 246.998L0.0102327 252.998ZM146 106.499V-0.000976562H140V106.499H146ZM143 -3.00098H0V2.99902H143V-3.00098ZM-3 -0.000976562V249.998H3V-0.000976562H-3Z" fill="#2996BD" mask="url(#path-1-inside-1_528_221)"/>
</svg>
