<svg width="143" height="250" viewBox="0 0 143 250" fill="none" xmlns="http://www.w3.org/2000/svg">
<mask id="path-1-inside-1_528_211" fill="white">
<path fill-rule="evenodd" clip-rule="evenodd" d="M0 -0.000123942C79.0229 0.269418 143 64.4129 143 143.499V249.999H0V-0.000123942Z"/>
</mask>
<path d="M0 -0.000123942H-3V-3.01037L0.0102327 -3.00011L0 -0.000123942ZM143 249.999H146V252.999H143V249.999ZM0 249.999V252.999H-3V249.999H0ZM0.0102327 -3.00011C80.6854 -2.72493 146 62.7595 146 143.499H140C140 66.0663 77.3604 3.26376 -0.0102327 2.99986L0.0102327 -3.00011ZM146 143.499V249.999H140V143.499H146ZM143 252.999H0V246.999H143V252.999ZM-3 249.999V-0.000123942H3V249.999H-3Z" fill="#F83955" mask="url(#path-1-inside-1_528_211)"/>
</svg>
