<svg width="143" height="250" viewBox="0 0 143 250" fill="none" xmlns="http://www.w3.org/2000/svg">
<mask id="path-1-inside-1_528_210" fill="white">
<path fill-rule="evenodd" clip-rule="evenodd" d="M143 0.00085262C63.9771 0.270394 0 64.4138 0 143.5V250H143V0.00085262Z"/>
</mask>
<path d="M143 0.00085262H146V-3.0094L142.99 -2.99913L143 0.00085262ZM0 250H-3V253H0V250ZM143 250V253H146V250H143ZM142.99 -2.99913C62.3146 -2.72395 -3 62.7604 -3 143.5H3C3 66.0672 65.6396 3.26474 143.01 3.00084L142.99 -2.99913ZM-3 143.5V250H3V143.5H-3ZM0 253H143V247H0V253ZM146 250V0.00085262H140V250H146Z" fill="#EFC94C" mask="url(#path-1-inside-1_528_210)"/>
</svg>
